<svg width="164" height="29" viewBox="0 0 164 29" fill="none" xmlns="http://www.w3.org/2000/svg">
<g clip-path="url(#clip0_491_92)">
<mask id="mask0_491_92" style="mask-type:luminance" maskUnits="userSpaceOnUse" x="0" y="1" width="33" height="27">
<path d="M32.4607 1H0V28H32.4607V1Z" fill="white"/>
</mask>
<g mask="url(#mask0_491_92)">
<path d="M32.3284 16.8947C32.2659 16.3689 31.8512 14.4679 30.1167 13.0543C29.4397 12.496 28.5554 11.9967 27.4059 11.6511C27.0345 9.66591 26.1783 7.80254 24.9128 6.22586C22.4391 3.11663 18.4929 1.07828 14.0371 1.00739L14.0267 1V1.00739C13.8682 1.00739 13.7097 1.00739 13.5512 1.00739V1L13.5438 1.00739C9.75314 1.07385 6.12986 2.58637 3.56571 5.18009C1.2193 7.55375 -0.0472145 10.6201 -0.00277532 13.8165C0.0283321 15.8105 0.0653649 16.422 0.311261 20.419C0.363108 21.2565 0.423842 22.2417 0.494943 23.4204C0.504029 23.6093 0.558924 23.7933 0.654926 23.9565C2.20586 26.4897 10.3945 26.8073 14.3956 26.8073C15.6317 26.8073 16.5123 26.7807 16.6627 26.7733C17.0049 26.9173 19.4986 27.9549 20.6622 27.9993C20.8311 28.0051 20.9997 27.9831 21.1614 27.9343L23.4841 27.2297C23.5684 27.2041 23.6417 27.151 23.6921 27.079C23.7426 27.0069 23.7674 26.9201 23.7626 26.8324L23.6811 25.2135C23.6771 25.1229 23.7075 25.0341 23.7663 24.9648C23.825 24.8955 23.9078 24.8509 23.9981 24.8398C27.0126 24.4779 28.9027 25.3243 29.5886 25.602C29.6393 25.6223 29.6936 25.6318 29.7482 25.63C29.8028 25.6282 29.8564 25.6152 29.9056 25.5917L32.1127 24.5385C32.1767 24.5077 32.231 24.4603 32.2699 24.4013C32.309 24.3423 32.3314 24.2738 32.3351 24.2032C32.3933 23.119 32.586 18.9183 32.3284 16.8947ZM28.7931 17.7647C28.2154 17.6066 27.1533 17.3954 25.5868 17.3784C26.0062 17.0844 26.4876 16.8904 26.9941 16.8112C27.5866 16.7507 28.0547 16.9058 28.4339 17.2824C28.5762 17.4271 28.6992 17.5894 28.7998 17.7654L28.7931 17.7647ZM28.4472 12.8498L27.6177 16.343C27.3909 16.3065 27.1602 16.3006 26.9319 16.3253H26.9186C26.566 16.3822 26.2227 16.486 25.8979 16.634L24.661 13.9243C25.2686 13.459 25.9601 13.1141 26.6978 12.9081C27.2678 12.7493 27.8674 12.728 28.4472 12.8461V12.8498ZM7.46451 16.6237C5.39067 16.4095 3.67532 16.1347 2.43546 15.9028C2.4162 15.2441 2.38954 13.1186 2.76727 11.3446C3.95232 11.5558 5.6114 11.8114 7.60078 12.0167C7.42895 14.2375 7.44673 15.9494 7.46451 16.62V16.6237ZM5.02774 11.1482C5.27957 8.94734 6.06466 7.86021 6.32538 7.55153C7.35784 7.72285 8.58143 7.88828 9.96346 8.00201C9.58131 9.17775 9.50574 10.9311 9.49242 11.6356C7.80519 11.5019 6.2928 11.3247 5.02774 11.1445V11.1482ZM8.21851 7.26719C8.37847 6.75907 8.85989 5.46073 9.95458 4.04126C11.163 4.21273 12.3811 4.30695 13.6016 4.3234V7.60839C11.802 7.60044 10.0045 7.48649 8.21851 7.26719ZM10.0553 11.6733C10.0701 10.9864 10.1472 9.13125 10.5441 8.04263C11.5574 8.1165 12.6476 8.15636 13.803 8.15636C15.0029 8.15636 16.2709 8.11059 17.5967 8.00128C18.0811 9.13125 18.0233 11.0632 17.9863 11.7323C15.344 11.8779 12.6951 11.8582 10.0553 11.6733ZM18.1655 4.02798C18.9156 4.98232 19.499 6.05592 19.8912 7.20366C17.9927 7.45813 16.08 7.59331 14.1645 7.60839V4.3234C15.5034 4.31742 16.8403 4.2187 18.1655 4.02798ZM18.1818 7.95107C19.4794 7.82848 20.8304 7.64385 22.2183 7.38386C22.8736 8.5458 23.3557 9.79672 23.6493 11.0972C21.9617 11.3843 20.2604 11.5845 18.5521 11.6969C18.5921 10.9702 18.6306 9.17111 18.1818 7.94959V7.95107ZM14.2771 12.3823H14.5644C16.6377 12.3852 18.7097 12.2758 20.7711 12.0543C20.6585 12.1179 20.5489 12.1829 20.4393 12.2523C18.8987 13.2419 17.7537 14.8224 17.0412 16.9095C16.0976 16.9523 15.1733 16.973 14.2771 16.9744V12.3823ZM20.4067 12.8667L23.913 13.9243C22.5798 15.1237 21.6391 16.8046 21.0763 18.4633L17.3493 17.5667C17.887 15.7263 18.8232 14.0041 20.4067 12.8623V12.8667ZM24.2625 14.2537L25.4609 16.8725C24.621 17.4028 24.0729 18.2285 23.7189 19.1221L21.5562 18.611C22.0776 17.0601 22.9472 15.4132 24.2625 14.2493V14.2537ZM27.7495 12.2862C27.3493 12.2824 26.9505 12.3341 26.5645 12.4399C25.7657 12.6638 25.0185 13.0412 24.3648 13.5506L20.9429 12.5167C22.0198 11.8919 23.2864 11.6024 24.621 11.6777C25.8653 11.7471 26.8948 11.9672 27.7495 12.2818V12.2862ZM26.8089 11.4872C26.4102 11.394 26.0067 11.3226 25.6002 11.273C25.9705 11.1932 26.3364 11.1105 26.7023 11.0204C26.7452 11.1785 26.7793 11.3335 26.8089 11.4872ZM26.5556 10.4901C25.772 10.6822 24.9874 10.8501 24.2018 10.9938C23.9138 9.69294 23.4425 8.43929 22.802 7.27013C23.4256 7.14608 24.0611 7.0028 24.6966 6.84623C25.5242 7.94522 26.1542 9.17918 26.5586 10.4931L26.5556 10.4901ZM24.3203 6.36912C23.0005 6.68817 21.7088 6.93336 20.4556 7.11799C20.2971 6.60101 19.8423 5.34551 18.7936 3.92311C19.4848 3.80642 20.1934 3.65872 20.9192 3.47999C22.2128 4.24082 23.3646 5.21931 24.3233 6.37209L24.3203 6.36912ZM13.6416 1.78137C13.6872 1.75712 13.738 1.74444 13.7897 1.74444C13.8414 1.74444 13.8922 1.75712 13.9378 1.78137C15.1999 2.46377 15.9317 3.14174 16.3494 3.68087C14.6537 3.8215 12.9488 3.80963 11.2552 3.64542C11.6803 3.11073 12.4061 2.44752 13.6416 1.78137ZM12.7187 1.59673C12.7257 1.59632 12.7326 1.59825 12.7383 1.60221C12.744 1.60617 12.7482 1.61194 12.7503 1.61858C12.7523 1.62522 12.7521 1.63235 12.7496 1.63884C12.7471 1.64532 12.7425 1.65078 12.7365 1.65434C11.7929 2.23926 11.0789 2.88326 10.6093 3.57452C9.56917 3.45247 8.53799 3.2635 7.52227 3.00881C9.14749 2.20998 10.9117 1.73057 12.7187 1.59673ZM3.95824 5.56561C4.80589 4.71116 5.76739 3.97708 6.81569 3.38398C7.63861 3.62297 8.4757 3.81043 9.32208 3.94527C8.23034 5.43267 7.78447 6.73544 7.65114 7.1948C6.17142 7.00077 4.70544 6.71362 3.26203 6.33517C3.48274 6.07075 3.71236 5.81377 3.95824 5.56561ZM0.551234 13.8076C0.538013 12.8501 0.649044 11.8949 0.881565 10.9658C1.08154 11.0115 1.53927 11.1135 2.21475 11.239C1.84442 12.9878 1.85182 14.9996 1.87108 15.7913C1.29929 15.6761 0.868235 15.5801 0.592711 15.5151C0.570492 14.9819 0.560123 14.4723 0.549753 13.8076H0.551234ZM0.616413 16.1133C1.18968 16.2448 2.21919 16.4634 3.61161 16.6909V20.7661C2.09772 20.4012 1.17487 20.0467 0.832683 19.9064C0.718622 18.0409 0.653445 16.9759 0.61493 16.1133H0.616413ZM6.90752 21.9551V25.828C5.47066 25.6374 4.12415 25.3627 3.07094 24.9742L2.99243 21.1944L3.2013 21.2476L3.33536 21.2808C3.39461 21.2956 3.45385 21.3104 3.51535 21.3244C3.57681 21.3384 3.63755 21.3539 3.7005 21.368L3.92268 21.4182L4.09081 21.4551L4.38117 21.5172C4.48929 21.5401 4.60336 21.5622 4.71224 21.5844C4.99073 21.64 5.28303 21.6939 5.58916 21.7461C5.83604 21.788 6.09282 21.8291 6.35945 21.8695C6.55424 21.8982 6.75423 21.9271 6.95937 21.9544L6.90752 21.9551ZM5.44548 21.1501L5.27587 21.1191L5.10774 21.0881L4.94404 21.0563L4.78408 21.0246L4.62632 20.9928L4.33005 20.9308L4.17081 20.8961V16.7795C5.59583 17.001 7.34231 17.2167 9.33021 17.3644V21.642C8.53328 21.5799 7.80744 21.5016 7.15565 21.416C6.54238 21.3355 5.97062 21.2454 5.444 21.1501H5.44548ZM13.6031 26.246C11.8685 26.2268 9.60351 26.1456 7.47042 25.8959V22.0186C9.45996 22.2535 11.4619 22.3679 13.4653 22.3613H13.6031V26.246ZM14.1659 26.246V22.3539C14.8162 22.3465 15.4932 22.3273 16.1968 22.2963C16.1752 23.6089 16.253 24.9214 16.4294 26.2223C16.1183 26.2371 15.2903 26.2578 14.1645 26.2519L14.1659 26.246ZM16.2664 20.8399C16.2428 21.1412 16.225 21.4396 16.2131 21.7321C14.1083 21.8326 11.9995 21.8144 9.89681 21.6774V17.4043C11.2433 17.4914 12.692 17.5431 14.2178 17.5431C15.074 17.5431 15.9569 17.5254 16.8575 17.487C16.5483 18.5841 16.3498 19.7093 16.265 20.8458L16.2664 20.8399ZM20.4393 21.8488C20.4349 22.1161 20.4304 22.4883 20.4289 22.9167L16.7034 21.9152C16.7401 20.6088 16.9138 19.3098 17.2219 18.0394L20.9252 18.9301C20.634 19.8772 20.4706 20.8587 20.4393 21.8488ZM21.0318 27.4616C21.0318 26.8028 20.9118 24.9063 20.9163 23.4307L23.0982 23.3037C23.1042 23.3849 23.1116 23.6582 23.1116 23.6626L23.2716 26.7851L21.0318 27.4616ZM23.0893 22.8281L20.9207 22.9595C20.9207 22.4736 20.9281 22.1471 20.9326 21.8517C20.9459 21.1486 21.094 20.1531 21.4125 19.0748L23.55 19.5874C23.2215 20.6367 23.0645 21.7319 23.0849 22.831L23.0893 22.8281ZM25.6728 24.2534C25.5735 24.2534 25.4713 24.2534 25.3691 24.2534C24.791 24.253 24.2138 24.3 23.6434 24.3937L23.6049 23.6272C23.6049 23.6235 23.6049 23.6013 23.6004 23.5636C23.6 23.557 23.6 23.5503 23.6004 23.5437C23.6004 23.5363 23.6004 23.5289 23.6004 23.5208C23.6008 23.5178 23.6008 23.5149 23.6004 23.5119C23.6004 23.5053 23.6004 23.4979 23.6004 23.4898C23.6004 23.4595 23.596 23.4248 23.5945 23.3856C23.593 23.3465 23.5945 23.3118 23.59 23.2727C23.59 23.2549 23.59 23.2357 23.59 23.2158C23.59 23.1072 23.5848 22.9787 23.5856 22.8354C23.5856 22.797 23.5856 22.7571 23.5856 22.7166C23.5856 22.6907 23.5856 22.6641 23.5856 22.6375C23.5856 22.5688 23.5856 22.4972 23.5915 22.4233C23.5915 22.3864 23.593 22.3487 23.596 22.3103C23.596 22.2719 23.596 22.2365 23.6019 22.1944C23.6078 22.1523 23.6056 22.1154 23.6086 22.0747C23.6115 22.0341 23.6138 21.9935 23.6167 21.9522C23.6197 21.9108 23.6226 21.8695 23.6263 21.8273L23.633 21.7535C23.633 21.718 23.6397 21.6796 23.6434 21.6457C23.6434 21.6206 23.6486 21.5947 23.6508 21.5718C23.6552 21.5283 23.6604 21.4847 23.6656 21.4411L23.6767 21.3503C23.6804 21.3192 23.6841 21.2882 23.6885 21.2572C23.693 21.2262 23.6967 21.1996 23.7011 21.1708C23.7071 21.1257 23.7137 21.08 23.7219 21.0334C23.73 20.9869 23.7382 20.9285 23.7478 20.8761C23.7545 20.8348 23.7619 20.7934 23.7693 20.752C24.4063 20.7407 25.0435 20.7684 25.6772 20.8348L25.6728 24.2534ZM29.4723 21.7232C29.4612 22.0386 29.4427 22.2483 29.439 22.2904C29.4387 22.2919 29.4387 22.2934 29.439 22.2948L29.3042 24.9388C28.2929 24.5747 27.2362 24.3511 26.1638 24.2741V20.8901C28.1636 21.1619 29.4538 21.7188 29.4716 21.7277V21.7232H29.4723ZM23.8707 20.255C24.0811 19.3895 24.4396 18.5209 25.0365 17.8622C27.4674 17.8164 28.8139 18.2625 29.0776 18.3599C29.1604 18.5936 29.2277 18.8324 29.279 19.0748C29.4172 19.7758 29.483 20.489 29.4753 21.2033C28.8502 20.9596 26.7245 20.2284 23.8663 20.258L23.8707 20.255ZM31.8558 24.1175L29.7863 25.1057L29.9271 22.3318C29.9315 22.2963 29.9523 22.0659 29.9656 21.7173L31.9653 20.7646C31.9374 22.2697 31.8737 23.6774 31.8512 24.1205L31.8558 24.1175ZM31.9683 20.2196L29.973 21.1723C29.973 20.3333 29.8886 19.1856 29.542 18.2181L31.6971 16.2876C31.7626 16.5073 31.8121 16.7314 31.8454 16.9582C31.9492 17.7366 31.9744 18.9788 31.9638 20.2225L31.9683 20.2196Z" fill="#00142D"/>
<path d="M26.8103 11.4872C26.4116 11.3941 26.0081 11.3226 25.6016 11.2731C25.9719 11.1933 26.3378 11.1106 26.7037 11.0205C26.7466 11.1785 26.7807 11.3336 26.8103 11.4872Z" fill="#F5FDFF"/>
<path d="M31.9586 20.7676C31.9365 22.2727 31.8728 23.6774 31.8506 24.1205L29.7812 25.1087L29.922 22.3347C29.9264 22.2993 29.9472 22.0689 29.9605 21.7203L31.9586 20.7676Z" fill="#F5FDFF"/>
<path d="M31.9654 20.2225L29.9701 21.1752C29.9701 20.3362 29.8857 19.1885 29.5391 18.2211L31.6988 16.2876C31.764 16.5073 31.8137 16.7314 31.8468 16.9582C31.9506 17.7366 31.9757 18.9788 31.9654 20.2225Z" fill="#F5FDFF"/>
<path d="M28.7935 17.7648C28.2158 17.6067 27.1522 17.3955 25.582 17.3778C26.0014 17.0838 26.4828 16.8897 26.9893 16.8106C27.5818 16.75 28.0499 16.9051 28.4291 17.2818C28.5709 17.4265 28.6934 17.5889 28.7935 17.7648Z" fill="#F5FDFF"/>
<path d="M29.473 21.2033C28.8479 20.9595 26.7222 20.2284 23.8633 20.2579C24.0736 19.3924 24.4321 18.5239 25.0291 17.8651C27.4599 17.8193 28.8064 18.2654 29.0701 18.3629C29.3989 19.2713 29.473 20.3909 29.473 21.2033Z" fill="#F5FDFF"/>
<path d="M25.6681 20.8312V24.2565C25.5689 24.2565 25.4667 24.2565 25.3645 24.2565C24.7864 24.2561 24.2092 24.303 23.6387 24.3968L23.6002 23.6273C23.5364 22.6657 23.5901 21.7 23.7602 20.7514C24.3972 20.7392 25.0344 20.7658 25.6681 20.8312Z" fill="#F5FDFF"/>
<path d="M29.4694 21.7232C29.4575 22.0673 29.4368 22.2859 29.4353 22.2978L29.3005 24.9447C28.2892 24.5806 27.2325 24.357 26.1602 24.28V20.8901C28.1599 21.1619 29.4501 21.7188 29.4679 21.7276L29.4694 21.7232Z" fill="#F5FDFF"/>
<path d="M23.27 26.7822L21.0258 27.4646C21.0258 26.8059 20.9058 24.9093 20.9103 23.4337L23.0967 23.3037C23.1026 23.385 23.11 23.6582 23.11 23.6627L23.27 26.7822Z" fill="#F5FDFF"/>
<path d="M23.0866 22.8309L20.918 22.9623C20.918 22.4764 20.9254 22.1499 20.9298 21.8545C20.9431 21.1514 21.0913 20.1559 21.4098 19.0776L23.5517 19.5872C23.2233 20.6366 23.0662 21.7318 23.0866 22.8309Z" fill="#F5FDFF"/>
<path d="M25.4633 16.8684C24.6234 17.3986 24.0753 18.2243 23.7213 19.1179L21.5586 18.6069C22.0771 17.0604 22.9495 15.4135 24.2649 14.2495L25.4633 16.8684Z" fill="#F5FDFF"/>
<path d="M28.4464 12.8461L27.6168 16.3394C27.3901 16.3029 27.1594 16.2969 26.931 16.3217H26.9177C26.5651 16.3786 26.2219 16.4824 25.8971 16.6304L24.6602 13.9244C25.2678 13.4591 25.9592 13.1141 26.697 12.9082C27.2669 12.7494 27.8666 12.7281 28.4464 12.8461Z" fill="#F5FDFF"/>
<path d="M27.748 12.2818C27.3478 12.278 26.9489 12.3297 26.563 12.4354C25.7639 12.6608 25.0166 13.0396 24.3632 13.5506L20.9414 12.5167C22.0183 11.8919 23.2848 11.6024 24.6195 11.6777C25.8638 11.7471 26.8933 11.9672 27.748 12.2818Z" fill="#F5FDFF"/>
<path d="M23.9153 13.9243C22.5821 15.1237 21.6414 16.8046 21.0785 18.4633L17.3516 17.5667C17.8893 15.7263 18.8255 14.0041 20.409 12.8623L23.9153 13.9243Z" fill="#F5FDFF"/>
<path d="M20.9263 18.9302C20.6347 19.8772 20.4708 20.8587 20.439 21.8489C20.4346 22.1162 20.4301 22.4885 20.4286 22.9168L16.7031 21.9154C16.7398 20.6089 16.9135 19.3099 17.2216 18.0396L20.9263 18.9302Z" fill="#F5FDFF"/>
<path d="M16.4275 26.2283C16.1179 26.2371 15.2899 26.2578 14.1641 26.2519V22.3598C14.8144 22.3525 15.4913 22.3333 16.1949 22.3022C16.1733 23.6149 16.2511 24.9273 16.4275 26.2283Z" fill="#F5FDFF"/>
<path d="M6.95618 21.955H6.90728V25.8279C5.47043 25.6374 4.12392 25.3626 3.0707 24.9742L2.99219 21.1943C4.29699 21.527 5.62072 21.7811 6.95618 21.955Z" fill="#F5FDFF"/>
<path d="M13.6014 22.3627V26.2488C11.8667 26.2296 9.60184 26.1484 7.46875 25.8988V22.0215C9.45826 22.2563 11.4602 22.3707 13.4636 22.3641L13.6014 22.3627Z" fill="#F5FDFF"/>
<path d="M16.8567 17.49C16.5477 18.5862 16.3492 19.7104 16.2642 20.8459C16.2405 21.1472 16.2227 21.4456 16.2108 21.738C14.106 21.8385 11.9973 21.8203 9.89453 21.6834V17.4043C11.2425 17.4915 12.6912 17.5431 14.217 17.5431C15.0732 17.5431 15.9561 17.5284 16.8567 17.49Z" fill="#F5FDFF"/>
<path d="M9.32737 17.3642V21.6418C8.53044 21.5797 7.8046 21.5015 7.1528 21.4158C6.0033 21.2681 5.00937 21.082 4.16797 20.8988V16.7793C5.59597 16.9994 7.34241 17.2165 9.32737 17.3642Z" fill="#F5FDFF"/>
<path d="M3.60847 16.6908V20.766C2.09607 20.4012 1.17322 20.0467 0.831032 19.9064C0.71697 18.0423 0.651794 16.9774 0.613281 16.1147C1.18655 16.2447 2.21754 16.4633 3.60847 16.6908Z" fill="#F5FDFF"/>
<path d="M1.8663 15.7914C1.29451 15.6762 0.863449 15.5801 0.587924 15.5152C0.568669 14.982 0.5583 14.4724 0.547931 13.8077C0.534707 12.8501 0.645738 11.895 0.878262 10.9658C1.07824 11.0116 1.53596 11.1135 2.21144 11.2391C1.84111 12.9879 1.84704 14.9997 1.8663 15.7914Z" fill="#F5FDFF"/>
<path d="M7.46428 16.6199C5.39044 16.4057 3.67509 16.131 2.43524 15.8991C2.41598 15.2403 2.38932 13.1148 2.76705 11.3408C3.9521 11.5521 5.61117 11.8076 7.60056 12.0129C7.42873 14.2373 7.4465 15.9493 7.46428 16.6199Z" fill="#F5FDFF"/>
<path d="M20.7714 12.0498C20.6588 12.1133 20.5492 12.1783 20.4396 12.2478C18.899 13.2374 17.754 14.8178 17.0415 16.9049C16.0979 16.9478 15.1735 16.9684 14.2773 16.9699V12.3777H14.5647C16.6381 12.3807 18.71 12.2712 20.7714 12.0498Z" fill="#F5FDFF"/>
<path d="M26.5574 10.4931C25.7738 10.6851 24.9891 10.853 24.2036 10.9967C23.9149 9.69469 23.4426 8.44001 22.8008 7.27012C23.4244 7.14604 24.0599 7.00276 24.6954 6.84619C25.523 7.94521 26.153 9.17914 26.5574 10.4931Z" fill="#F5FDFF"/>
<path d="M24.3236 6.37204C23.0038 6.6911 21.7121 6.93628 20.4589 7.12091C20.3004 6.60394 19.8456 5.34844 18.7969 3.92603C19.4881 3.80934 20.1967 3.66163 20.9225 3.48291C22.2149 4.24314 23.3655 5.2206 24.3236 6.37204Z" fill="#F5FDFF"/>
<path d="M12.7376 1.65434C11.794 2.23926 11.0801 2.88326 10.6105 3.57452C9.57031 3.45247 8.53915 3.26351 7.52344 3.00881C9.14866 2.20998 10.9129 1.73056 12.7198 1.59673C12.7268 1.59632 12.7337 1.59825 12.7394 1.60221C12.7451 1.60617 12.7494 1.61193 12.7514 1.61857C12.7535 1.62521 12.7532 1.63235 12.7507 1.63884C12.7482 1.64532 12.7436 1.65078 12.7376 1.65434Z" fill="#F5FDFF"/>
<path d="M16.3481 3.68106C14.6524 3.82169 12.9475 3.80982 11.2539 3.64561C11.6776 3.11091 12.4034 2.44771 13.6388 1.78156C13.6844 1.75731 13.7353 1.74463 13.7869 1.74463C13.8386 1.74463 13.8895 1.75731 13.9351 1.78156C15.1986 2.46396 15.9304 3.14193 16.3481 3.68106Z" fill="#F5FDFF"/>
<path d="M13.6018 4.32364V7.60863C11.8023 7.60068 10.0048 7.48673 8.21875 7.26743C8.37872 6.75931 8.86014 5.46098 9.95482 4.0415C11.1632 4.21294 12.3814 4.30717 13.6018 4.32364Z" fill="#F5FDFF"/>
<path d="M9.32176 3.94507C8.23002 5.43248 7.78416 6.73525 7.65086 7.19461C6.17111 7.00055 4.70513 6.71344 3.26172 6.33495C3.48391 6.07056 3.71204 5.81355 3.95795 5.56542C4.80557 4.71098 5.76708 3.97689 6.81537 3.38379C7.6383 3.62278 8.47539 3.81024 9.32176 3.94507Z" fill="#F5FDFF"/>
<path d="M9.96307 7.99836C9.58091 9.1741 9.50534 10.9274 9.49202 11.6319C7.80479 11.502 6.29534 11.3247 5.02734 11.1445C5.27917 8.94369 6.06426 7.85656 6.32498 7.54785C7.35744 7.72068 8.58103 7.88462 9.96307 7.99836Z" fill="#F5FDFF"/>
<path d="M17.9856 11.7325C15.3433 11.8781 12.6945 11.8584 10.0547 11.6735C10.0695 10.9866 10.1465 9.13143 10.5435 8.04284C11.5567 8.11669 12.647 8.15658 13.8024 8.15658C15.0023 8.15658 16.2703 8.11077 17.5961 8.00146C18.0804 9.13143 18.0227 11.0634 17.9856 11.7325Z" fill="#F5FDFF"/>
<path d="M18.5539 11.6953C18.5939 10.9672 18.6324 9.17106 18.1836 7.94951C19.4812 7.82691 20.8322 7.64228 22.2202 7.38232C22.8755 8.54423 23.3575 9.79515 23.6511 11.0957C21.9635 11.3828 20.2622 11.5829 18.5539 11.6953Z" fill="#F5FDFF"/>
<path d="M19.8908 7.20355C17.9923 7.45802 16.0796 7.5932 14.1641 7.60828V4.32329C15.5026 4.31576 16.839 4.21556 18.1636 4.02344C18.9147 4.97899 19.4987 6.05414 19.8908 7.20355Z" fill="#F5FDFF"/>
<path d="M20.2005 3.06126C19.142 3.30188 18.0701 3.47993 16.9905 3.59448C16.5032 2.85595 15.7433 2.1765 14.7227 1.55908C16.6328 1.67858 18.4977 2.18997 20.2005 3.06126Z" fill="#80ABFF"/>
<path d="M5.69084 7.41177C5.30201 7.95604 4.68874 9.09487 4.46282 11.0365C2.63268 10.7603 1.40393 10.4966 1.01953 10.4102C1.42068 9.09757 2.05267 7.86646 2.88598 6.77441C3.3 6.89403 4.27397 7.15254 5.69084 7.41177Z" fill="#80ABFF"/>
<path d="M13.7057 12.346V16.9412C11.6378 16.9257 9.72246 16.8104 8.02341 16.6494C7.98815 15.1125 8.03266 13.5748 8.15674 12.0425C9.82097 12.2005 11.6993 12.3187 13.7057 12.346Z" fill="#80ABFF"/>
<path d="M2.49272 24.7136C1.85724 24.4182 1.37655 24.0651 1.11955 23.6449C1.07029 23.5584 1.0426 23.4614 1.03881 23.362C0.971415 22.2476 0.912904 21.3075 0.863281 20.5024C1.19139 20.6287 1.70689 20.8112 2.41495 21.0135L2.49272 24.7136Z" fill="#80ABFF"/>
<path d="M20.4193 27.4611C19.3454 27.3134 17.439 26.5409 16.9383 26.3334C16.7508 25.0284 16.6665 23.7108 16.6864 22.3926L20.4208 23.3955C20.4134 24.8866 20.4178 26.7706 20.4193 27.4611Z" fill="#80ABFF"/>
<path d="M31.5114 15.7559L29.325 17.71C29.1844 17.4136 28.9957 17.1424 28.7666 16.9072C28.5719 16.7118 28.3407 16.5565 28.0859 16.4501L28.9154 12.9517C29.2057 13.0519 29.4814 13.19 29.7354 13.3623C30.5254 13.9931 31.1376 14.818 31.5114 15.7559Z" fill="#80ABFF"/>
<path d="M0.863281 20.5024C0.909199 21.3148 0.97734 22.2528 1.0403 23.3702C1.04459 23.4702 1.07359 23.5676 1.12473 23.6538C1.22498 23.8119 1.34716 23.9551 1.48765 24.0792C1.7883 24.3405 2.12724 24.5544 2.49272 24.7136L2.41495 21.0143C1.70541 20.8075 1.19213 20.6317 0.863281 20.5024Z" fill="#6691E5"/>
<path d="M4.17138 20.896V20.0408C4.56543 20.4049 4.98981 20.7793 5.44235 21.1486C4.98611 21.0681 4.56172 20.9824 4.17138 20.896ZM16.4263 26.2282C15.663 26.1323 14.9069 25.9865 14.1628 25.7917V26.2518C15.2886 26.2577 16.1167 26.2371 16.4263 26.2282ZM3.06781 24.9727C4.12102 25.3612 5.46753 25.6374 6.90442 25.8264V22.277C6.71626 22.1427 6.53409 22.006 6.35261 21.8694C5.2204 21.7035 4.09772 21.4782 2.9893 21.1944L3.06781 24.9727ZM13.5999 26.2474V25.6337C11.2935 24.9564 9.23006 23.8701 7.46729 22.6692V25.8973C9.60038 26.1484 11.8653 26.2297 13.5999 26.2489V26.2474ZM3.60847 20.766V19.5105C1.68278 17.6391 0.613281 16.1133 0.613281 16.1133C0.651794 16.9759 0.71697 18.0408 0.831032 19.9049C1.17322 20.0467 2.09607 20.4012 3.60847 20.766Z" fill="#DBE3E5"/>
<path d="M29.0721 18.3657C29.4009 19.2733 29.475 20.3937 29.475 21.2061C28.8499 20.9624 26.7242 20.2312 23.8653 20.2608C24.0756 19.3952 24.4341 18.5267 25.0311 17.8679C27.4619 17.8221 28.8084 18.2675 29.0721 18.3657ZM28.4292 17.2815C28.05 16.9049 27.5789 16.749 26.9894 16.8103C26.4831 16.8895 26.0017 17.0833 25.5821 17.3768C27.1523 17.3938 28.2159 17.6065 28.7936 17.7645C28.6934 17.5886 28.5709 17.4262 28.4292 17.2815ZM26.1584 20.8929V24.2843C26.5235 24.3101 26.8686 24.3522 27.1901 24.4039C27.8703 24.5129 28.5395 24.6817 29.1899 24.9083L29.2972 24.9467L29.432 22.3006C29.432 22.288 29.4543 22.0701 29.4661 21.726V21.7297C29.4483 21.7216 28.1551 21.1618 26.1584 20.8929ZM23.7601 20.7512C23.6945 21.107 23.6468 21.4659 23.6172 21.8264C23.6031 21.9948 23.5927 22.1573 23.586 22.3094C23.586 22.3479 23.5846 22.3855 23.5816 22.4225C23.5764 22.5701 23.5742 22.709 23.5742 22.8346C23.5742 23.0561 23.5786 23.24 23.5846 23.3744C23.5846 23.432 23.5897 23.4808 23.592 23.5221C23.5964 23.5864 23.5994 23.6233 23.6001 23.6285L23.6387 24.398C24.2091 24.3042 24.7862 24.2573 25.3644 24.2577C25.4666 24.2577 25.5688 24.2577 25.668 24.2577V20.8339C25.0344 20.7667 24.3972 20.7391 23.7601 20.7512Z" fill="#DBE3E5"/>
</g>
</g>
<path d="M51.5009 6.488C52.5249 6.488 53.4369 6.728 54.2369 7.208C55.0369 7.672 55.6609 8.32 56.1089 9.152C56.5569 9.968 56.7809 10.888 56.7809 11.912V12.224C56.7809 13.248 56.5569 14.176 56.1089 15.008C55.6609 15.84 55.0369 16.496 54.2369 16.976C53.4369 17.44 52.5249 17.672 51.5009 17.672H47.5409V23H42.2369V6.488H51.5009ZM47.5409 13.808H49.7249C50.2849 13.808 50.7009 13.664 50.9729 13.376C51.2609 13.088 51.4049 12.696 51.4049 12.2V12.008C51.4049 11.496 51.2609 11.104 50.9729 10.832C50.7009 10.544 50.2849 10.4 49.7249 10.4H47.5409V13.808ZM67.2132 23L66.9012 21.08C66.4052 21.768 65.7492 22.312 64.9332 22.712C64.1332 23.096 63.2852 23.288 62.3892 23.288C60.9172 23.288 59.8132 22.88 59.0772 22.064C58.3412 21.248 57.9732 20.072 57.9732 18.536V10.328H62.7492V17.96C62.7492 18.504 62.8852 18.944 63.1572 19.28C63.4452 19.6 63.8452 19.76 64.3572 19.76C64.9492 19.76 65.4292 19.568 65.7972 19.184C66.1652 18.8 66.3492 18.328 66.3492 17.768V10.328H71.1252V23H67.2132ZM82.0451 23L81.6371 21.2C80.7091 22.592 79.3651 23.288 77.6051 23.288C75.8931 23.288 74.5731 22.728 73.6451 21.608C72.7171 20.488 72.2531 18.832 72.2531 16.64C72.2531 14.464 72.7171 12.824 73.6451 11.72C74.5731 10.6 75.8931 10.04 77.6051 10.04C79.0611 10.04 80.2451 10.528 81.1571 11.504V5.6H85.9331V23H82.0451ZM79.0931 13.568C77.7171 13.568 77.0291 14.392 77.0291 16.04V17.312C77.0291 18.944 77.7171 19.76 79.0931 19.76C79.7971 19.76 80.3251 19.512 80.6771 19.016C81.0291 18.52 81.2051 17.872 81.2051 17.072V16.28C81.2051 15.48 81.0291 14.832 80.6771 14.336C80.3251 13.824 79.7971 13.568 79.0931 13.568ZM101.893 7.952C101.893 8.928 101.645 9.68 101.149 10.208C100.669 10.736 99.9409 11.128 98.9649 11.384C99.4289 11.736 99.7889 12.152 100.045 12.632C100.317 13.096 100.453 13.592 100.453 14.12C100.453 15.464 99.9409 16.48 98.9169 17.168C97.9089 17.856 96.6449 18.2 95.1249 18.2H93.3009C92.2929 18.2 91.7889 18.432 91.7889 18.896C91.7889 19.12 91.9009 19.304 92.1249 19.448C92.3489 19.576 92.7409 19.64 93.3009 19.64H97.6209C99.0289 19.64 100.093 20.008 100.813 20.744C101.533 21.48 101.893 22.464 101.893 23.696C101.893 24.608 101.653 25.392 101.173 26.048C100.693 26.704 100.045 27.2 99.2289 27.536C98.4129 27.872 97.5249 28.04 96.5649 28.04H89.5089C88.9329 28.04 88.3969 27.904 87.9009 27.632C87.4209 27.36 87.0369 26.984 86.7489 26.504C86.4609 26.04 86.3169 25.52 86.3169 24.944C86.3169 24.32 86.5089 23.752 86.8929 23.24C87.2769 22.744 87.7569 22.368 88.3329 22.112C87.9489 21.84 87.6449 21.512 87.4209 21.128C87.1969 20.744 87.0849 20.328 87.0849 19.88C87.0849 19.256 87.3169 18.696 87.7809 18.2C88.2449 17.688 88.8209 17.344 89.5089 17.168C88.8849 16.768 88.3889 16.312 88.0209 15.8C87.6529 15.272 87.4689 14.72 87.4689 14.144C87.4689 12.672 88.0609 11.624 89.2449 11C90.4449 10.36 92.0289 10.04 93.9969 10.04C94.8609 10.04 95.5569 10.088 96.0849 10.184C96.8689 9.688 97.3729 9.24 97.5969 8.84C97.8369 8.424 97.9569 8.128 97.9569 7.952H101.893ZM93.9489 12.536C93.4209 12.536 92.9889 12.672 92.6529 12.944C92.3169 13.216 92.1489 13.608 92.1489 14.12C92.1489 14.648 92.3009 15.048 92.6049 15.32C92.9249 15.576 93.3729 15.704 93.9489 15.704C94.5249 15.704 94.9729 15.576 95.2929 15.32C95.6289 15.048 95.7969 14.648 95.7969 14.12C95.7969 13.592 95.6289 13.2 95.2929 12.944C94.9729 12.672 94.5249 12.536 93.9489 12.536ZM92.1009 23C91.7329 23 91.4289 23.096 91.1889 23.288C90.9649 23.496 90.8529 23.784 90.8529 24.152C90.8529 24.52 90.9729 24.816 91.2129 25.04C91.4529 25.264 91.7489 25.376 92.1009 25.376H95.8449C96.1969 25.376 96.4929 25.264 96.7329 25.04C96.9889 24.832 97.1169 24.544 97.1169 24.176C97.1169 23.808 96.9969 23.52 96.7569 23.312C96.5169 23.104 96.2129 23 95.8449 23H92.1009ZM111.555 22.616C110.899 24.392 110.091 25.736 109.131 26.648C108.187 27.576 106.859 28.04 105.147 28.04C104.107 28.04 103.187 27.896 102.387 27.608V24.752H104.307C105.507 24.752 106.219 24.168 106.443 23L101.403 10.328H106.539L108.963 18.752H109.131L111.363 10.328H116.067L111.555 22.616ZM123.803 6.488C129.579 6.488 132.467 9.24 132.467 14.744C132.467 20.248 129.579 23 123.803 23H116.651V6.488H123.803ZM121.955 19.04H123.707C125.931 19.04 127.043 17.848 127.043 15.464V14.024C127.043 11.64 125.931 10.448 123.707 10.448H121.955V19.04ZM140.347 10.04C142.667 10.04 144.435 10.584 145.651 11.672C146.883 12.76 147.499 14.424 147.499 16.664V17.48H137.995C137.995 18.392 138.195 19.08 138.595 19.544C139.011 20.008 139.659 20.24 140.539 20.24C141.339 20.24 141.923 20.072 142.291 19.736C142.675 19.4 142.867 18.952 142.867 18.392H147.499C147.499 19.928 146.915 21.128 145.747 21.992C144.579 22.856 142.875 23.288 140.635 23.288C138.283 23.288 136.459 22.744 135.163 21.656C133.867 20.552 133.219 18.888 133.219 16.664C133.219 14.488 133.851 12.84 135.115 11.72C136.379 10.6 138.123 10.04 140.347 10.04ZM140.539 13.088C139.035 13.088 138.195 13.8 138.019 15.224H142.675C142.675 14.568 142.483 14.048 142.099 13.664C141.731 13.28 141.211 13.088 140.539 13.088ZM162.418 23H156.85L154.45 19.016H154.354L151.93 23H146.626L151.498 16.28L147.106 10.328H152.722L154.738 13.688H154.834L156.85 10.328H162.13L157.666 16.4L162.418 23Z" fill="#498BC6"/>
<defs>
<clipPath id="clip0_491_92">
<rect width="32.4607" height="27" fill="white" transform="translate(0 1)"/>
</clipPath>
</defs>
</svg>
